<svg xmlns="http://www.w3.org/2000/svg" xmlns:xlink="http://www.w3.org/1999/xlink" version="1.1" width="1080" height="1080" viewBox="0 0 1080 1080" xml:space="preserve">
<desc>Created with Fabric.js 3.5.0</desc>
<defs>
</defs>
<rect x="0" y="0" width="100%" height="100%" fill="#ffffff"/>
<g transform="matrix(2.7273 0 0 2.7273 540.0049 540.0049)" id="242965">
<g style="" vector-effect="non-scaling-stroke">
		<g transform="matrix(1 0 0 1 -0.6 -0.5)" id="Layer_1">
<path style="stroke: none; stroke-width: 1; stroke-dasharray: none; stroke-linecap: butt; stroke-dashoffset: 0; stroke-linejoin: miter; stroke-miterlimit: 4; is-custom-font: none; font-file-url: none; fill: rgb(202,33,39); fill-rule: nonzero; opacity: 1;" transform=" translate(-179.4, -179.5)" d="M 354.7 179.5 c 0 96.8 -78.5 175.3 -175.3 175.3 c -96.8 0 -175.3 -78.5 -175.3 -175.3 C 4.1 82.7 82.6 4.2 179.4 4.2 c 96.8 0 175.3 78.5 175.3 175.3 z" stroke-linecap="round"/>
</g>
		<g transform="matrix(1 0 0 1 -0.3641 23.5684)" id="Layer_1">
<path style="stroke: none; stroke-width: 1; stroke-dasharray: none; stroke-linecap: butt; stroke-dashoffset: 0; stroke-linejoin: miter; stroke-miterlimit: 4; is-custom-font: none; font-file-url: none; fill: rgb(255,255,255); fill-rule: nonzero; opacity: 1;" transform=" translate(-179.6359, -203.5684)" d="M 164.7 62.9 c -49.4 5.3 -98.6 43.3 -100.6 97.7 c -1.3 33.2 12.6 58.1 45.8 65.1 c 3.8 -15.7 4.5 -24.2 4.5 -24.2 s -14.6 -14 -16.1 -22.9 C 86.1 107 185 58.1 236.9 108.1 c 35.8 34.7 12.2 141.4 -45.6 130.3 c -55.4 -10.6 27.1 -95.5 -17.1 -112.2 c -35.9 -13.6 -55 41.5 -38 68.8 c -10 47 -31.5 91.3 -22.8 150.2 c 28.3 -19.5 37.8 -56.9 45.6 -95.9 c 14.2 8.2 21.8 16.8 39.9 18.1 c 66.8 4.9 104.1 -63.5 95 -126.7 c -8.2 -56 -66.8 -84.5 -129.2 -77.8 z" stroke-linecap="round"/>
</g>
</g>
</g>
</svg>